<svg width="200" height="36" viewBox="0 0 200 36" fill="none" xmlns="http://www.w3.org/2000/svg">
<path d="M188.903 17.536V5.128H183.983V0.736H199.487V5.128H194.567V17.536H188.903Z" fill="#212121"/>
<path d="M172.064 17.536V0.736H177.728V17.536H172.064Z" fill="#212121"/>
<path d="M155.752 17.92C154.376 17.92 153.104 17.704 151.936 17.272C150.784 16.84 149.784 16.232 148.936 15.448C148.088 14.648 147.424 13.712 146.944 12.64C146.48 11.568 146.248 10.4 146.248 9.136C146.248 7.856 146.48 6.688 146.944 5.632C147.424 4.56 148.088 3.632 148.936 2.848C149.784 2.048 150.784 1.432 151.936 0.999998C153.104 0.567997 154.368 0.351997 155.728 0.351997C157.104 0.351997 158.368 0.567997 159.52 0.999998C160.672 1.432 161.672 2.048 162.52 2.848C163.368 3.632 164.024 4.56 164.488 5.632C164.968 6.688 165.208 7.856 165.208 9.136C165.208 10.4 164.968 11.568 164.488 12.64C164.024 13.712 163.368 14.648 162.52 15.448C161.672 16.232 160.672 16.84 159.52 17.272C158.368 17.704 157.112 17.92 155.752 17.92ZM155.728 13.336C156.256 13.336 156.744 13.24 157.192 13.048C157.656 12.856 158.056 12.584 158.392 12.232C158.744 11.864 159.016 11.424 159.208 10.912C159.4 10.384 159.496 9.792 159.496 9.136C159.496 8.48 159.4 7.896 159.208 7.384C159.016 6.856 158.744 6.416 158.392 6.064C158.056 5.696 157.656 5.416 157.192 5.224C156.744 5.032 156.256 4.936 155.728 4.936C155.2 4.936 154.704 5.032 154.24 5.224C153.792 5.416 153.392 5.696 153.04 6.064C152.704 6.416 152.44 6.856 152.248 7.384C152.056 7.896 151.96 8.48 151.96 9.136C151.96 9.792 152.056 10.384 152.248 10.912C152.44 11.424 152.704 11.864 153.04 12.232C153.392 12.584 153.792 12.856 154.24 13.048C154.704 13.24 155.2 13.336 155.728 13.336Z" fill="#212121"/>
<path d="M122.292 17.536V0.736H130.572C132.444 0.736 134.092 1.08 135.516 1.768C136.94 2.44 138.052 3.4 138.852 4.648C139.652 5.896 140.052 7.384 140.052 9.112C140.052 10.856 139.652 12.36 138.852 13.624C138.052 14.872 136.94 15.84 135.516 16.528C134.092 17.2 132.444 17.536 130.572 17.536H122.292ZM127.956 13.12H130.332C131.132 13.12 131.828 12.968 132.42 12.664C133.028 12.36 133.5 11.912 133.836 11.32C134.172 10.712 134.34 9.976 134.34 9.112C134.34 8.264 134.172 7.544 133.836 6.952C133.5 6.36 133.028 5.912 132.42 5.608C131.828 5.304 131.132 5.152 130.332 5.152H127.956V13.12Z" fill="#212121"/>
<path d="M95.7636 17.92C94.4036 17.92 93.1476 17.712 91.9956 17.296C90.8596 16.864 89.8676 16.256 89.0196 15.472C88.1876 14.688 87.5396 13.76 87.0756 12.688C86.6116 11.616 86.3796 10.432 86.3796 9.136C86.3796 7.84 86.6116 6.656 87.0756 5.584C87.5396 4.512 88.1956 3.584 89.0436 2.8C89.8916 2.016 90.8916 1.416 92.0436 0.999998C93.2116 0.567997 94.4916 0.351997 95.8836 0.351997C97.5476 0.351997 99.0276 0.631997 100.324 1.192C101.636 1.752 102.716 2.552 103.564 3.592L99.9396 6.784C99.4116 6.176 98.8356 5.72 98.2116 5.416C97.6036 5.096 96.9236 4.936 96.1716 4.936C95.5476 4.936 94.9796 5.032 94.4676 5.224C93.9716 5.416 93.5476 5.696 93.1956 6.064C92.8436 6.432 92.5716 6.872 92.3796 7.384C92.1876 7.896 92.0916 8.48 92.0916 9.136C92.0916 9.76 92.1876 10.336 92.3796 10.864C92.5716 11.376 92.8436 11.816 93.1956 12.184C93.5476 12.552 93.9636 12.84 94.4436 13.048C94.9396 13.24 95.4916 13.336 96.0996 13.336C96.7396 13.336 97.3636 13.232 97.9716 13.024C98.5796 12.8 99.2276 12.424 99.9156 11.896L103.084 15.784C102.06 16.472 100.892 17 99.5796 17.368C98.2676 17.736 96.9956 17.92 95.7636 17.92ZM98.1636 15.064V8.68H103.084V15.784L98.1636 15.064Z" fill="#212121"/>
<path d="M62.9625 17.536V0.736H67.6185L76.1625 10.96H74.0025V0.736H79.5225V17.536H74.8665L66.3225 7.312H68.4825V17.536H62.9625Z" fill="#212121"/>
<path d="M49.7719 17.536V0.736H55.4359V17.536H49.7719Z" fill="#212121"/>
<path d="M33.4601 17.92C32.0841 17.92 30.8121 17.704 29.6441 17.272C28.4921 16.84 27.4921 16.232 26.6441 15.448C25.7961 14.648 25.1321 13.712 24.6521 12.64C24.1881 11.568 23.9561 10.4 23.9561 9.136C23.9561 7.856 24.1881 6.688 24.6521 5.632C25.1321 4.56 25.7961 3.632 26.6441 2.848C27.4921 2.048 28.4921 1.432 29.6441 0.999998C30.8121 0.567997 32.0761 0.351997 33.4361 0.351997C34.8121 0.351997 36.0761 0.567997 37.2281 0.999998C38.3801 1.432 39.3801 2.048 40.2281 2.848C41.0761 3.632 41.7321 4.56 42.1961 5.632C42.6761 6.688 42.9161 7.856 42.9161 9.136C42.9161 10.4 42.6761 11.568 42.1961 12.64C41.7321 13.712 41.0761 14.648 40.2281 15.448C39.3801 16.232 38.3801 16.84 37.2281 17.272C36.0761 17.704 34.8201 17.92 33.4601 17.92ZM33.4361 13.336C33.9641 13.336 34.4521 13.24 34.9001 13.048C35.3641 12.856 35.7641 12.584 36.1001 12.232C36.4521 11.864 36.7241 11.424 36.9161 10.912C37.1081 10.384 37.2041 9.792 37.2041 9.136C37.2041 8.48 37.1081 7.896 36.9161 7.384C36.7241 6.856 36.4521 6.416 36.1001 6.064C35.7641 5.696 35.3641 5.416 34.9001 5.224C34.4521 5.032 33.9641 4.936 33.4361 4.936C32.9081 4.936 32.4121 5.032 31.9481 5.224C31.5001 5.416 31.1001 5.696 30.7481 6.064C30.4121 6.416 30.1481 6.856 29.9561 7.384C29.7641 7.896 29.6681 8.48 29.6681 9.136C29.6681 9.792 29.7641 10.384 29.9561 10.912C30.1481 11.424 30.4121 11.864 30.7481 12.232C31.1001 12.584 31.5001 12.856 31.9481 13.048C32.4121 13.24 32.9081 13.336 33.4361 13.336Z" fill="#212121"/>
<path d="M0 17.536V0.736H8.28C10.152 0.736 11.8 1.08 13.224 1.768C14.648 2.44 15.76 3.4 16.56 4.648C17.36 5.896 17.76 7.384 17.76 9.112C17.76 10.856 17.36 12.36 16.56 13.624C15.76 14.872 14.648 15.84 13.224 16.528C11.8 17.2 10.152 17.536 8.28 17.536H0ZM5.664 13.12H8.04C8.84 13.12 9.536 12.968 10.128 12.664C10.736 12.36 11.208 11.912 11.544 11.32C11.88 10.712 12.048 9.976 12.048 9.112C12.048 8.264 11.88 7.544 11.544 6.952C11.208 6.36 10.736 5.912 10.128 5.608C9.536 5.304 8.84 5.152 8.04 5.152H5.664V13.12Z" fill="#212121"/>
<path d="M164.334 32.4H167.214V33.08H164.334V32.4ZM164.406 34.888H167.67V35.584H163.606V29.984H167.558V30.68H164.406V34.888Z" fill="#212121"/>
<path d="M154.856 35.584V29.984H155.656V34.888H158.688V35.584H154.856Z" fill="#212121"/>
<path d="M144.801 35.584V29.984H147.313C147.959 29.984 148.455 30.1147 148.801 30.376C149.148 30.632 149.321 30.984 149.321 31.432C149.321 31.736 149.252 31.992 149.113 32.2C148.98 32.408 148.799 32.568 148.569 32.68C148.34 32.792 148.092 32.848 147.825 32.848L147.969 32.608C148.289 32.608 148.572 32.664 148.817 32.776C149.063 32.888 149.257 33.0533 149.401 33.272C149.545 33.4853 149.617 33.752 149.617 34.072C149.617 34.552 149.436 34.9253 149.073 35.192C148.716 35.4533 148.183 35.584 147.473 35.584H144.801ZM145.601 34.936H147.441C147.884 34.936 148.223 34.8613 148.457 34.712C148.692 34.5627 148.809 34.328 148.809 34.008C148.809 33.6827 148.692 33.4453 148.457 33.296C148.223 33.1467 147.884 33.072 147.441 33.072H145.529V32.424H147.241C147.647 32.424 147.961 32.3493 148.185 32.2C148.409 32.0507 148.521 31.8267 148.521 31.528C148.521 31.2293 148.409 31.0053 148.185 30.856C147.961 30.7067 147.647 30.632 147.241 30.632H145.601V34.936Z" fill="#212121"/>
<path d="M138.325 35.584V29.984H139.125V35.584H138.325Z" fill="#212121"/>
<path d="M130.988 35.648C130.561 35.648 130.153 35.584 129.764 35.456C129.375 35.3227 129.068 35.152 128.844 34.944L129.14 34.32C129.353 34.5067 129.625 34.6613 129.956 34.784C130.287 34.9067 130.631 34.968 130.988 34.968C131.313 34.968 131.577 34.9307 131.78 34.856C131.983 34.7813 132.132 34.68 132.228 34.552C132.324 34.4187 132.372 34.2693 132.372 34.104C132.372 33.912 132.308 33.7573 132.18 33.64C132.057 33.5227 131.895 33.4293 131.692 33.36C131.495 33.2853 131.276 33.2213 131.036 33.168C130.796 33.1147 130.553 33.0533 130.308 32.984C130.068 32.9093 129.847 32.816 129.644 32.704C129.447 32.592 129.287 32.4427 129.164 32.256C129.041 32.064 128.98 31.8187 128.98 31.52C128.98 31.232 129.055 30.968 129.204 30.728C129.359 30.4827 129.593 30.288 129.908 30.144C130.228 29.9947 130.633 29.92 131.124 29.92C131.449 29.92 131.772 29.9627 132.092 30.048C132.412 30.1333 132.689 30.256 132.924 30.416L132.66 31.056C132.42 30.896 132.167 30.7813 131.9 30.712C131.633 30.6373 131.375 30.6 131.124 30.6C130.809 30.6 130.551 30.64 130.348 30.72C130.145 30.8 129.996 30.9067 129.9 31.04C129.809 31.1733 129.764 31.3227 129.764 31.488C129.764 31.6853 129.825 31.8427 129.948 31.96C130.076 32.0773 130.239 32.1707 130.436 32.24C130.639 32.3093 130.86 32.3733 131.1 32.432C131.34 32.4853 131.58 32.5467 131.82 32.616C132.065 32.6853 132.287 32.776 132.484 32.888C132.687 33 132.849 33.1493 132.972 33.336C133.095 33.5227 133.156 33.7627 133.156 34.056C133.156 34.3387 133.079 34.6027 132.924 34.848C132.769 35.088 132.529 35.2827 132.204 35.432C131.884 35.576 131.479 35.648 130.988 35.648Z" fill="#212121"/>
<path d="M122.019 35.648C121.592 35.648 121.184 35.584 120.795 35.456C120.406 35.3227 120.099 35.152 119.875 34.944L120.171 34.32C120.384 34.5067 120.656 34.6613 120.987 34.784C121.318 34.9067 121.662 34.968 122.019 34.968C122.344 34.968 122.608 34.9307 122.811 34.856C123.014 34.7813 123.163 34.68 123.259 34.552C123.355 34.4187 123.403 34.2693 123.403 34.104C123.403 33.912 123.339 33.7573 123.211 33.64C123.088 33.5227 122.926 33.4293 122.723 33.36C122.526 33.2853 122.307 33.2213 122.067 33.168C121.827 33.1147 121.584 33.0533 121.339 32.984C121.099 32.9093 120.878 32.816 120.675 32.704C120.478 32.592 120.318 32.4427 120.195 32.256C120.072 32.064 120.011 31.8187 120.011 31.52C120.011 31.232 120.086 30.968 120.235 30.728C120.39 30.4827 120.624 30.288 120.939 30.144C121.259 29.9947 121.664 29.92 122.155 29.92C122.48 29.92 122.803 29.9627 123.123 30.048C123.443 30.1333 123.72 30.256 123.955 30.416L123.691 31.056C123.451 30.896 123.198 30.7813 122.931 30.712C122.664 30.6373 122.406 30.6 122.155 30.6C121.84 30.6 121.582 30.64 121.379 30.72C121.176 30.8 121.027 30.9067 120.931 31.04C120.84 31.1733 120.795 31.3227 120.795 31.488C120.795 31.6853 120.856 31.8427 120.979 31.96C121.107 32.0773 121.27 32.1707 121.467 32.24C121.67 32.3093 121.891 32.3733 122.131 32.432C122.371 32.4853 122.611 32.5467 122.851 32.616C123.096 32.6853 123.318 32.776 123.515 32.888C123.718 33 123.88 33.1493 124.003 33.336C124.126 33.5227 124.187 33.7627 124.187 34.056C124.187 34.3387 124.11 34.6027 123.955 34.848C123.8 35.088 123.56 35.2827 123.235 35.432C122.915 35.576 122.51 35.648 122.019 35.648Z" fill="#212121"/>
<path d="M112.196 35.648C111.77 35.648 111.372 35.576 111.004 35.432C110.642 35.288 110.327 35.088 110.06 34.832C109.794 34.5707 109.586 34.2667 109.436 33.92C109.287 33.5733 109.212 33.1947 109.212 32.784C109.212 32.3733 109.287 31.9947 109.436 31.648C109.586 31.3013 109.794 31 110.06 30.744C110.327 30.4827 110.642 30.28 111.004 30.136C111.367 29.992 111.764 29.92 112.196 29.92C112.623 29.92 113.015 29.992 113.372 30.136C113.735 30.2747 114.05 30.4747 114.316 30.736C114.588 30.992 114.796 31.2933 114.94 31.64C115.09 31.9867 115.164 32.368 115.164 32.784C115.164 33.2 115.09 33.5813 114.94 33.928C114.796 34.2747 114.588 34.5787 114.316 34.84C114.05 35.096 113.735 35.296 113.372 35.44C113.015 35.5787 112.623 35.648 112.196 35.648ZM112.196 34.936C112.506 34.936 112.791 34.8827 113.052 34.776C113.319 34.6693 113.548 34.52 113.74 34.328C113.938 34.1307 114.09 33.9013 114.196 33.64C114.308 33.3787 114.364 33.0933 114.364 32.784C114.364 32.4747 114.308 32.1893 114.196 31.928C114.09 31.6667 113.938 31.44 113.74 31.248C113.548 31.0507 113.319 30.8987 113.052 30.792C112.791 30.6853 112.506 30.632 112.196 30.632C111.882 30.632 111.591 30.6853 111.324 30.792C111.063 30.8987 110.834 31.0507 110.636 31.248C110.439 31.44 110.284 31.6667 110.172 31.928C110.066 32.1893 110.012 32.4747 110.012 32.784C110.012 33.0933 110.066 33.3787 110.172 33.64C110.284 33.9013 110.439 34.1307 110.636 34.328C110.834 34.52 111.063 34.6693 111.324 34.776C111.591 34.8827 111.882 34.936 112.196 34.936Z" fill="#212121"/>
<path d="M99.895 35.584V29.984H102.079C102.57 29.984 102.988 30.0613 103.335 30.216C103.682 30.3707 103.948 30.5947 104.135 30.888C104.322 31.1813 104.415 31.5307 104.415 31.936C104.415 32.3413 104.322 32.6907 104.135 32.984C103.948 33.272 103.682 33.496 103.335 33.656C102.988 33.8107 102.57 33.888 102.079 33.888H100.335L100.695 33.512V35.584H99.895ZM100.695 33.592L100.335 33.192H102.055C102.567 33.192 102.954 33.0827 103.215 32.864C103.482 32.6453 103.615 32.336 103.615 31.936C103.615 31.536 103.482 31.2267 103.215 31.008C102.954 30.7893 102.567 30.68 102.055 30.68H100.335L100.695 30.28V33.592Z" fill="#212121"/>
<path d="M86.1632 35.584V30.68H84.2432V29.984H88.8752V30.68H86.9552V35.584H86.1632Z" fill="#212121"/>
<path d="M78.5746 35.584V29.984H79.3746V35.584H78.5746Z" fill="#212121"/>
<path d="M63.7948 32.4H66.6748V33.08H63.7948V32.4ZM63.8668 34.888H67.1308V35.584H63.0668V29.984H67.0188V30.68H63.8668V34.888Z" fill="#212121"/>
<path d="M54.0208 34.232L53.9808 33.256L57.1568 29.984H58.0688L55.6128 32.576L55.1648 33.072L54.0208 34.232ZM53.3168 35.584V29.984H54.1168V35.584H53.3168ZM57.2848 35.584L54.9888 32.912L55.5248 32.32L58.2208 35.584H57.2848Z" fill="#212121"/>
<path d="M42.6095 35.584L45.1455 29.984H45.9375L48.4815 35.584H47.6415L45.3775 30.432H45.6975L43.4335 35.584H42.6095ZM43.6895 34.184L43.9055 33.544H47.0575L47.2895 34.184H43.6895Z" fill="#212121"/>
<path d="M31.8168 35.584V29.984H32.4728L34.9848 34.216H34.6328L37.1128 29.984H37.7688L37.7768 35.584H37.0088L37.0008 31.192H37.1848L34.9768 34.904H34.6088L32.3848 31.192H32.5848V35.584H31.8168Z" fill="#212121"/>
</svg>
