<svg width="200" height="36" viewBox="0 0 200 36" fill="none" xmlns="http://www.w3.org/2000/svg">
<path d="M189.159 17.184V4.776H184.239V0.384003H199.743V4.776H194.823V17.184H189.159Z" fill="white"/>
<path d="M172.321 17.184V0.384003H177.985V17.184H172.321Z" fill="white"/>
<path d="M156.009 17.568C154.633 17.568 153.361 17.352 152.193 16.92C151.041 16.488 150.041 15.88 149.193 15.096C148.345 14.296 147.681 13.36 147.201 12.288C146.737 11.216 146.505 10.048 146.505 8.784C146.505 7.504 146.737 6.336 147.201 5.28C147.681 4.208 148.345 3.28 149.193 2.496C150.041 1.696 151.041 1.08 152.193 0.648C153.361 0.216 154.625 0 155.985 0C157.361 0 158.625 0.216 159.777 0.648C160.929 1.08 161.929 1.696 162.777 2.496C163.625 3.28 164.281 4.208 164.745 5.28C165.225 6.336 165.465 7.504 165.465 8.784C165.465 10.048 165.225 11.216 164.745 12.288C164.281 13.36 163.625 14.296 162.777 15.096C161.929 15.88 160.929 16.488 159.777 16.92C158.625 17.352 157.369 17.568 156.009 17.568ZM155.985 12.984C156.513 12.984 157.001 12.888 157.449 12.696C157.913 12.504 158.313 12.232 158.649 11.88C159.001 11.512 159.273 11.072 159.465 10.56C159.657 10.032 159.753 9.44 159.753 8.784C159.753 8.128 159.657 7.544 159.465 7.032C159.273 6.504 159.001 6.064 158.649 5.712C158.313 5.344 157.913 5.064 157.449 4.872C157.001 4.68 156.513 4.584 155.985 4.584C155.457 4.584 154.961 4.68 154.497 4.872C154.049 5.064 153.649 5.344 153.297 5.712C152.961 6.064 152.697 6.504 152.505 7.032C152.313 7.544 152.217 8.128 152.217 8.784C152.217 9.44 152.313 10.032 152.505 10.56C152.697 11.072 152.961 11.512 153.297 11.88C153.649 12.232 154.049 12.504 154.497 12.696C154.961 12.888 155.457 12.984 155.985 12.984Z" fill="white"/>
<path d="M122.549 17.184V0.384003H130.829C132.701 0.384003 134.349 0.728003 135.773 1.416C137.197 2.088 138.309 3.048 139.109 4.296C139.909 5.544 140.309 7.032 140.309 8.76C140.309 10.504 139.909 12.008 139.109 13.272C138.309 14.52 137.197 15.488 135.773 16.176C134.349 16.848 132.701 17.184 130.829 17.184H122.549ZM128.213 12.768H130.589C131.389 12.768 132.085 12.616 132.677 12.312C133.285 12.008 133.757 11.56 134.093 10.968C134.429 10.36 134.597 9.624 134.597 8.76C134.597 7.912 134.429 7.192 134.093 6.6C133.757 6.008 133.285 5.56 132.677 5.256C132.085 4.952 131.389 4.8 130.589 4.8H128.213V12.768Z" fill="white"/>
<path d="M96.0202 17.568C94.6602 17.568 93.4042 17.36 92.2522 16.944C91.1162 16.512 90.1242 15.904 89.2762 15.12C88.4442 14.336 87.7962 13.408 87.3322 12.336C86.8682 11.264 86.6362 10.08 86.6362 8.784C86.6362 7.488 86.8682 6.304 87.3322 5.232C87.7962 4.16 88.4522 3.232 89.3002 2.448C90.1482 1.664 91.1482 1.064 92.3002 0.648C93.4682 0.216 94.7482 0 96.1402 0C97.8042 0 99.2842 0.28 100.58 0.839999C101.892 1.4 102.972 2.2 103.82 3.24L100.196 6.432C99.6682 5.824 99.0922 5.368 98.4682 5.064C97.8602 4.744 97.1802 4.584 96.4282 4.584C95.8042 4.584 95.2362 4.68 94.7242 4.872C94.2282 5.064 93.8042 5.344 93.4522 5.712C93.1002 6.08 92.8282 6.52 92.6362 7.032C92.4442 7.544 92.3482 8.128 92.3482 8.784C92.3482 9.408 92.4442 9.984 92.6362 10.512C92.8282 11.024 93.1002 11.464 93.4522 11.832C93.8042 12.2 94.2202 12.488 94.7002 12.696C95.1962 12.888 95.7482 12.984 96.3562 12.984C96.9962 12.984 97.6202 12.88 98.2282 12.672C98.8362 12.448 99.4842 12.072 100.172 11.544L103.34 15.432C102.316 16.12 101.148 16.648 99.8362 17.016C98.5242 17.384 97.2522 17.568 96.0202 17.568ZM98.4202 14.712V8.328H103.34V15.432L98.4202 14.712Z" fill="white"/>
<path d="M63.2192 17.184V0.384003H67.8752L76.4192 10.608H74.2592V0.384003H79.7792V17.184H75.1232L66.5792 6.96H68.7392V17.184H63.2192Z" fill="white"/>
<path d="M50.0285 17.184V0.384003H55.6925V17.184H50.0285Z" fill="white"/>
<path d="M33.7168 17.568C32.3408 17.568 31.0688 17.352 29.9008 16.92C28.7488 16.488 27.7488 15.88 26.9008 15.096C26.0528 14.296 25.3888 13.36 24.9088 12.288C24.4448 11.216 24.2128 10.048 24.2128 8.784C24.2128 7.504 24.4448 6.336 24.9088 5.28C25.3888 4.208 26.0528 3.28 26.9008 2.496C27.7488 1.696 28.7488 1.08 29.9008 0.648C31.0688 0.216 32.3328 0 33.6928 0C35.0688 0 36.3328 0.216 37.4848 0.648C38.6368 1.08 39.6368 1.696 40.4848 2.496C41.3328 3.28 41.9888 4.208 42.4528 5.28C42.9328 6.336 43.1728 7.504 43.1728 8.784C43.1728 10.048 42.9328 11.216 42.4528 12.288C41.9888 13.36 41.3328 14.296 40.4848 15.096C39.6368 15.88 38.6368 16.488 37.4848 16.92C36.3328 17.352 35.0768 17.568 33.7168 17.568ZM33.6928 12.984C34.2208 12.984 34.7088 12.888 35.1568 12.696C35.6208 12.504 36.0208 12.232 36.3568 11.88C36.7088 11.512 36.9808 11.072 37.1728 10.56C37.3648 10.032 37.4608 9.44 37.4608 8.784C37.4608 8.128 37.3648 7.544 37.1728 7.032C36.9808 6.504 36.7088 6.064 36.3568 5.712C36.0208 5.344 35.6208 5.064 35.1568 4.872C34.7088 4.68 34.2208 4.584 33.6928 4.584C33.1648 4.584 32.6688 4.68 32.2048 4.872C31.7568 5.064 31.3568 5.344 31.0048 5.712C30.6688 6.064 30.4048 6.504 30.2128 7.032C30.0208 7.544 29.9248 8.128 29.9248 8.784C29.9248 9.44 30.0208 10.032 30.2128 10.56C30.4048 11.072 30.6688 11.512 31.0048 11.88C31.3568 12.232 31.7568 12.504 32.2048 12.696C32.6688 12.888 33.1648 12.984 33.6928 12.984Z" fill="white"/>
<path d="M0.256653 17.184V0.384003H8.53665C10.4087 0.384003 12.0567 0.728003 13.4807 1.416C14.9047 2.088 16.0167 3.048 16.8167 4.296C17.6167 5.544 18.0167 7.032 18.0167 8.76C18.0167 10.504 17.6167 12.008 16.8167 13.272C16.0167 14.52 14.9047 15.488 13.4807 16.176C12.0567 16.848 10.4087 17.184 8.53665 17.184H0.256653ZM5.92065 12.768H8.29665C9.09665 12.768 9.79265 12.616 10.3847 12.312C10.9927 12.008 11.4647 11.56 11.8007 10.968C12.1367 10.36 12.3047 9.624 12.3047 8.76C12.3047 7.912 12.1367 7.192 11.8007 6.6C11.4647 6.008 10.9927 5.56 10.3847 5.256C9.79265 4.952 9.09665 4.8 8.29665 4.8H5.92065V12.768Z" fill="white"/>
<path d="M164.591 32.048H167.471V32.728H164.591V32.048ZM164.663 34.536H167.927V35.232H163.863V29.632H167.815V30.328H164.663V34.536Z" fill="white"/>
<path d="M155.113 35.232V29.632H155.913V34.536H158.945V35.232H155.113Z" fill="white"/>
<path d="M145.058 35.232V29.632H147.57C148.215 29.632 148.711 29.7627 149.058 30.024C149.405 30.28 149.578 30.632 149.578 31.08C149.578 31.384 149.509 31.64 149.37 31.848C149.237 32.056 149.055 32.216 148.826 32.328C148.597 32.44 148.349 32.496 148.082 32.496L148.226 32.256C148.546 32.256 148.829 32.312 149.074 32.424C149.319 32.536 149.514 32.7013 149.658 32.92C149.802 33.1333 149.874 33.4 149.874 33.72C149.874 34.2 149.693 34.5733 149.33 34.84C148.973 35.1013 148.439 35.232 147.73 35.232H145.058ZM145.858 34.584H147.698C148.141 34.584 148.479 34.5093 148.714 34.36C148.949 34.2107 149.066 33.976 149.066 33.656C149.066 33.3307 148.949 33.0933 148.714 32.944C148.479 32.7947 148.141 32.72 147.698 32.72H145.786V32.072H147.498C147.903 32.072 148.218 31.9973 148.442 31.848C148.666 31.6987 148.778 31.4747 148.778 31.176C148.778 30.8773 148.666 30.6533 148.442 30.504C148.218 30.3547 147.903 30.28 147.498 30.28H145.858V34.584Z" fill="white"/>
<path d="M138.581 35.232V29.632H139.381V35.232H138.581Z" fill="white"/>
<path d="M131.245 35.296C130.818 35.296 130.41 35.232 130.021 35.104C129.631 34.9707 129.325 34.8 129.101 34.592L129.397 33.968C129.61 34.1547 129.882 34.3093 130.213 34.432C130.543 34.5547 130.887 34.616 131.245 34.616C131.57 34.616 131.834 34.5787 132.037 34.504C132.239 34.4293 132.389 34.328 132.485 34.2C132.581 34.0667 132.629 33.9173 132.629 33.752C132.629 33.56 132.565 33.4053 132.437 33.288C132.314 33.1707 132.151 33.0773 131.949 33.008C131.751 32.9333 131.533 32.8693 131.293 32.816C131.053 32.7627 130.81 32.7013 130.565 32.632C130.325 32.5573 130.103 32.464 129.901 32.352C129.703 32.24 129.543 32.0907 129.421 31.904C129.298 31.712 129.237 31.4667 129.237 31.168C129.237 30.88 129.311 30.616 129.461 30.376C129.615 30.1307 129.85 29.936 130.165 29.792C130.485 29.6427 130.89 29.568 131.381 29.568C131.706 29.568 132.029 29.6107 132.349 29.696C132.669 29.7813 132.946 29.904 133.181 30.064L132.917 30.704C132.677 30.544 132.423 30.4293 132.157 30.36C131.89 30.2853 131.631 30.248 131.381 30.248C131.066 30.248 130.807 30.288 130.605 30.368C130.402 30.448 130.253 30.5547 130.157 30.688C130.066 30.8213 130.021 30.9707 130.021 31.136C130.021 31.3333 130.082 31.4907 130.205 31.608C130.333 31.7253 130.495 31.8187 130.693 31.888C130.895 31.9573 131.117 32.0213 131.357 32.08C131.597 32.1333 131.837 32.1947 132.077 32.264C132.322 32.3333 132.543 32.424 132.741 32.536C132.943 32.648 133.106 32.7973 133.229 32.984C133.351 33.1707 133.413 33.4107 133.413 33.704C133.413 33.9867 133.335 34.2507 133.181 34.496C133.026 34.736 132.786 34.9307 132.461 35.08C132.141 35.224 131.735 35.296 131.245 35.296Z" fill="white"/>
<path d="M122.276 35.296C121.849 35.296 121.441 35.232 121.052 35.104C120.663 34.9707 120.356 34.8 120.132 34.592L120.428 33.968C120.641 34.1547 120.913 34.3093 121.244 34.432C121.575 34.5547 121.918 34.616 122.276 34.616C122.601 34.616 122.865 34.5787 123.068 34.504C123.27 34.4293 123.42 34.328 123.516 34.2C123.612 34.0667 123.66 33.9173 123.66 33.752C123.66 33.56 123.596 33.4053 123.468 33.288C123.345 33.1707 123.183 33.0773 122.98 33.008C122.783 32.9333 122.564 32.8693 122.324 32.816C122.084 32.7627 121.841 32.7013 121.596 32.632C121.356 32.5573 121.134 32.464 120.932 32.352C120.734 32.24 120.575 32.0907 120.452 31.904C120.329 31.712 120.268 31.4667 120.268 31.168C120.268 30.88 120.343 30.616 120.492 30.376C120.647 30.1307 120.881 29.936 121.196 29.792C121.516 29.6427 121.921 29.568 122.412 29.568C122.737 29.568 123.06 29.6107 123.38 29.696C123.7 29.7813 123.977 29.904 124.212 30.064L123.948 30.704C123.708 30.544 123.455 30.4293 123.188 30.36C122.921 30.2853 122.663 30.248 122.412 30.248C122.097 30.248 121.839 30.288 121.636 30.368C121.433 30.448 121.284 30.5547 121.188 30.688C121.097 30.8213 121.052 30.9707 121.052 31.136C121.052 31.3333 121.113 31.4907 121.236 31.608C121.364 31.7253 121.526 31.8187 121.724 31.888C121.926 31.9573 122.148 32.0213 122.388 32.08C122.628 32.1333 122.868 32.1947 123.108 32.264C123.353 32.3333 123.575 32.424 123.772 32.536C123.975 32.648 124.137 32.7973 124.26 32.984C124.383 33.1707 124.444 33.4107 124.444 33.704C124.444 33.9867 124.366 34.2507 124.212 34.496C124.057 34.736 123.817 34.9307 123.492 35.08C123.172 35.224 122.766 35.296 122.276 35.296Z" fill="white"/>
<path d="M112.453 35.296C112.026 35.296 111.629 35.224 111.261 35.08C110.898 34.936 110.584 34.736 110.317 34.48C110.05 34.2187 109.842 33.9147 109.693 33.568C109.544 33.2213 109.469 32.8427 109.469 32.432C109.469 32.0213 109.544 31.6427 109.693 31.296C109.842 30.9493 110.05 30.648 110.317 30.392C110.584 30.1307 110.898 29.928 111.261 29.784C111.624 29.64 112.021 29.568 112.453 29.568C112.88 29.568 113.272 29.64 113.629 29.784C113.992 29.9227 114.306 30.1227 114.573 30.384C114.845 30.64 115.053 30.9413 115.197 31.288C115.346 31.6347 115.421 32.016 115.421 32.432C115.421 32.848 115.346 33.2293 115.197 33.576C115.053 33.9227 114.845 34.2267 114.573 34.488C114.306 34.744 113.992 34.944 113.629 35.088C113.272 35.2267 112.88 35.296 112.453 35.296ZM112.453 34.584C112.762 34.584 113.048 34.5307 113.309 34.424C113.576 34.3173 113.805 34.168 113.997 33.976C114.194 33.7787 114.346 33.5493 114.453 33.288C114.565 33.0267 114.621 32.7413 114.621 32.432C114.621 32.1227 114.565 31.8373 114.453 31.576C114.346 31.3147 114.194 31.088 113.997 30.896C113.805 30.6987 113.576 30.5467 113.309 30.44C113.048 30.3333 112.762 30.28 112.453 30.28C112.138 30.28 111.848 30.3333 111.581 30.44C111.32 30.5467 111.09 30.6987 110.893 30.896C110.696 31.088 110.541 31.3147 110.429 31.576C110.322 31.8373 110.269 32.1227 110.269 32.432C110.269 32.7413 110.322 33.0267 110.429 33.288C110.541 33.5493 110.696 33.7787 110.893 33.976C111.09 34.168 111.32 34.3173 111.581 34.424C111.848 34.5307 112.138 34.584 112.453 34.584Z" fill="white"/>
<path d="M100.152 35.232V29.632H102.336C102.826 29.632 103.245 29.7093 103.592 29.864C103.938 30.0187 104.205 30.2427 104.392 30.536C104.578 30.8293 104.672 31.1787 104.672 31.584C104.672 31.9893 104.578 32.3387 104.392 32.632C104.205 32.92 103.938 33.144 103.592 33.304C103.245 33.4587 102.826 33.536 102.336 33.536H100.592L100.952 33.16V35.232H100.152ZM100.952 33.24L100.592 32.84H102.312C102.824 32.84 103.21 32.7307 103.472 32.512C103.738 32.2933 103.872 31.984 103.872 31.584C103.872 31.184 103.738 30.8747 103.472 30.656C103.21 30.4373 102.824 30.328 102.312 30.328H100.592L100.952 29.928V33.24Z" fill="white"/>
<path d="M86.4199 35.232V30.328H84.4999V29.632H89.1319V30.328H87.2119V35.232H86.4199Z" fill="white"/>
<path d="M78.8313 35.232V29.632H79.6313V35.232H78.8313Z" fill="white"/>
<path d="M64.0515 32.048H66.9315V32.728H64.0515V32.048ZM64.1235 34.536H67.3875V35.232H63.3235V29.632H67.2755V30.328H64.1235V34.536Z" fill="white"/>
<path d="M54.2775 33.88L54.2375 32.904L57.4135 29.632H58.3255L55.8695 32.224L55.4215 32.72L54.2775 33.88ZM53.5735 35.232V29.632H54.3735V35.232H53.5735ZM57.5415 35.232L55.2455 32.56L55.7815 31.968L58.4775 35.232H57.5415Z" fill="white"/>
<path d="M42.8661 35.232L45.4021 29.632H46.1941L48.7381 35.232H47.8981L45.6341 30.08H45.9541L43.6901 35.232H42.8661ZM43.9461 33.832L44.1621 33.192H47.3141L47.5461 33.832H43.9461Z" fill="white"/>
<path d="M32.0735 35.232V29.632H32.7295L35.2415 33.864H34.8895L37.3695 29.632H38.0255L38.0335 35.232H37.2655L37.2575 30.84H37.4415L35.2335 34.552H34.8655L32.6415 30.84H32.8415V35.232H32.0735Z" fill="white"/>
</svg>
